<svg id="Capa_1" enable-background="new 0 0 512 512" height="512" viewBox="0 0 512 512" width="512" xmlns="http://www.w3.org/2000/svg"><g><path d="m149.216 181.062h213.241v141.969h-213.241z" fill="#2b4d66"/><path d="m421.643 393.88v118.12h-331.286v-118.12c0-30.339 19.285-57.309 47.976-67.127l3.194-1.092 19.728-6.748 9.416 1.988 34.47-11.785 5.687-7.16h90.347l6.16 8.839 35.758 12.239 7.665-4.121 19.718 6.748 3.194 1.092c28.688 9.817 47.973 36.788 47.973 67.127z" fill="#89daa4"/><g fill="#6ecb8b"><path d="m378.746 389.12-109.972 86.906-30.473-26.713 12.702-21.345c19.347-32.471 29.566-69.62 29.566-107.417v-18.595h20.604l6.16 8.839 35.758 12.239 7.665-4.121 19.718 6.748-13.454 25.827z"/><path d="m273.699 449.314-30.473 26.713-109.972-86.907 21.726-37.633-13.454-25.827 19.728-6.748 9.416 1.988 34.47-11.785 5.687-7.16h20.604v18.595c0 37.797 10.219 74.946 29.566 107.417z"/><path d="m231.43 301.956-72.494 24.796c-28.691 9.818-47.976 36.788-47.976 67.127v118.121h-20.603v-118.12c0-30.339 19.285-57.309 47.976-67.127l22.911-7.84 9.426 1.988 34.47-11.785 5.687-7.16z"/></g><path d="m301.173 226.66v93.891c-27.145 18.904-63.202 18.904-90.347 0v-93.891z" fill="#ffcebf"/><path d="m256 293.921c16.277 0 31.647-3.987 45.174-11.044v-56.217h-70.347-20v93.891c16.442 11.45 36.153 15.964 55.173 13.543-12.381-1.576-24.47-6.09-35.173-13.543v-29.906c8.037 2.137 16.475 3.276 25.173 3.276z" fill="#ffb09e"/><path d="m362.62 103.5v40.5h-213.24v-40.5c0-57.16 46.34-103.5 103.5-103.5h6.24c3.83 0 7.61.21 11.33.62 51.83 5.64 92.17 49.55 92.17 102.88z" fill="#365e7d"/><path d="m275.98 1.374c-1.828-.299-3.671-.551-5.53-.753-3.72-.411-7.5-.621-11.33-.621h-6.24c-57.16 0-103.5 46.34-103.5 103.5v40.5h40v-40.5c0-51.405 37.478-94.059 86.6-102.126z" fill="#2b4d66"/><path d="m188.783 131.977h-24.744c-11.067 0-20.038 8.971-20.038 20.038v15.015c0 11.067 8.971 20.038 20.038 20.038h24.744z" fill="#ffcebf"/><g><g><path d="m167.724 431.996v79.272c0 .247-.01.484-.041.731h-15.37c-.031-.247-.041-.484-.041-.731v-79.272c0-4.265 3.461-7.726 7.726-7.726 4.275 0 7.726 3.461 7.726 7.726z" fill="#6ecb8b"/></g></g><g><g><path d="m358.482 431.996v79.272c0 .247-.01.484-.041.731h-15.37c-.031-.247-.041-.484-.041-.731v-79.272c0-4.265 3.461-7.726 7.726-7.726s7.726 3.461 7.726 7.726z" fill="#6ecb8b"/></g></g><path d="m323.217 131.976h24.744c11.067 0 20.038 8.972 20.038 20.038v15.015c0 11.067-8.972 20.038-20.038 20.038h-24.744z" fill="#ffcebf"/><path d="m178.481 127.98v67.818c0 42.813 34.706 77.519 77.519 77.519 42.813 0 77.519-34.706 77.519-77.519v-67.818h-21.858c-14.131 0-26.676-9.041-31.147-22.446l-8.514-25.533-8.515 25.533c-4.47 13.405-17.016 22.446-31.147 22.446z" fill="#ffeee6"/><path d="m266.302 272.637c-3.369.453-6.809.68-10.302.68-42.814 0-77.521-34.707-77.521-77.521v-67.817h20.604v67.817c-.001 39.322 29.277 71.804 67.219 76.841z" fill="#ffdfcf"/><g><g><path d="m222.64 183.314c-4.267 0-7.726-3.459-7.726-7.726v-10.141c0-4.267 3.459-7.726 7.726-7.726s7.726 3.459 7.726 7.726v10.141c.001 4.267-3.459 7.726-7.726 7.726z" fill="#98695e"/></g><g><path d="m289.208 183.314c-4.267 0-7.726-3.459-7.726-7.726v-10.141c0-4.267 3.459-7.726 7.726-7.726s7.726 3.459 7.726 7.726v10.141c0 4.267-3.459 7.726-7.726 7.726z" fill="#98695e"/></g></g><g><path d="m256 240.611c-14.945 0-27.103-12.158-27.103-27.103 0-4.267 3.459-7.726 7.726-7.726s7.726 3.459 7.726 7.726c0 6.424 5.226 11.65 11.65 11.65s11.65-5.226 11.65-11.65c0-4.267 3.459-7.726 7.726-7.726s7.726 3.459 7.726 7.726c.002 14.945-12.156 27.103-27.101 27.103z" fill="#ffb09e"/></g><g><g><path d="m263.726 459.863v51.406c0 .247-.01.484-.041.731h-15.37c-.031-.247-.041-.484-.041-.731v-51.406c0-4.275 3.461-7.726 7.726-7.726 4.265-.001 7.726 3.45 7.726 7.726z" fill="#6ecb8b"/></g></g><path d="m210.824 301.958v18.59c0 41.529 11.217 82.286 32.465 117.967l12.711 21.344-95.999-75.86 18.48-32-17.24-33.082z" fill="#aee69c"/><path d="m301.176 301.958v18.59c0 41.529-11.217 82.286-32.465 117.967l-12.711 21.344 95.999-75.86-18.48-32 17.24-33.082z" fill="#aee69c"/></g></svg>